<svg xmlns="http://www.w3.org/2000/svg" viewBox="0 0 482.4 71.23"><defs><style>.cls-1,.cls-2{fill:#fff;}.cls-1{stroke:#000;stroke-miterlimit:10;stroke-width:1.01px;}</style></defs><title>Asset 1</title><g id="Layer_2" data-name="Layer 2"><g id="Layer_1-2" data-name="Layer 1"><circle cx="184.58" cy="42.27" r="28.76"/><circle class="cls-1" cx="185.65" cy="42.73" r="13.45"/><ellipse cx="185.78" cy="42.54" rx="3.24" ry="3.01"/><path class="cls-2" d="M14,70H0V0H28a27.23,27.23,0,0,1,7.42,1,27.76,27.76,0,0,1,6.66,2.83,28.36,28.36,0,0,1,5.67,4.4A28.2,28.2,0,0,1,55,20.61,27.18,27.18,0,0,1,56,28a27.49,27.49,0,0,1-.91,7,28.29,28.29,0,0,1-2.59,6.49,27.37,27.37,0,0,1-4.12,5.67,28.16,28.16,0,0,1-5.47,4.49L50.68,70H35.79l-6.1-14.11L14,56Zm0-56V42H28a13.57,13.57,0,0,0,5.42-1.1,14,14,0,0,0,7.44-7.47,14,14,0,0,0,0-10.89,13.9,13.9,0,0,0-3-4.46,14.18,14.18,0,0,0-4.44-3A13.57,13.57,0,0,0,28,14Z"/><path class="cls-2" d="M102.29,70H63.89V14h38.4V25.21H75.1V36.43H93.5V47.64H75.1V58.81h27.19Z"/><path class="cls-2" d="M153.5,64.28A28.95,28.95,0,0,1,127,70.2a29.39,29.39,0,0,1-17.34-13.36,28.86,28.86,0,0,1-2.93-6.92,28.91,28.91,0,0,1,0-15.37,28.76,28.76,0,0,1,2.93-6.93,29.39,29.39,0,0,1,10.43-10.43A28.79,28.79,0,0,1,127,14.26a28.31,28.31,0,0,1,7.68-1,29.06,29.06,0,0,1,10,1.78,28,28,0,0,1,8.75,5.18l-5.94,9.76a16.77,16.77,0,0,0-5.82-4.08,17.85,17.85,0,0,0-7-1.43,17.29,17.29,0,0,0-7,1.41,18.32,18.32,0,0,0-5.66,3.81,17.8,17.8,0,0,0-3.83,5.66,17.32,17.32,0,0,0-1.4,6.94,17,17,0,0,0,1.4,6.89,18.21,18.21,0,0,0,3.83,5.65,18,18,0,0,0,5.66,3.82,17.29,17.29,0,0,0,7,1.41,17.85,17.85,0,0,0,7-1.43,16.77,16.77,0,0,0,5.82-4.08Z"/><path class="cls-2" d="M231.82,70H220.61V14H243a22,22,0,0,1,5.93.8,22.42,22.42,0,0,1,5.34,2.27,23,23,0,0,1,4.53,3.52,21.85,21.85,0,0,1,3.51,4.55,22.26,22.26,0,0,1,2.27,5.35,22.37,22.37,0,0,1,.08,11.56,22.94,22.94,0,0,1-2.07,5.2,22.19,22.19,0,0,1-7.68,8.12L261.15,70H249.24l-4.88-11.29-12.54.08Zm0-44.81V47.64H243a10.88,10.88,0,0,0,4.33-.88,11.18,11.18,0,0,0,6-6,11.22,11.22,0,0,0,0-8.71,11.27,11.27,0,0,0-6-6,10.88,10.88,0,0,0-4.33-.88Z"/><path class="cls-2" d="M317.64,42a27.71,27.71,0,0,1-3.83,14.12,29,29,0,0,1-4.38,5.67A27.84,27.84,0,0,1,297.07,69a27.32,27.32,0,0,1-7.44,1H272.75V14h16.88a27.78,27.78,0,0,1,19.8,8.23,28.66,28.66,0,0,1,4.38,5.66A27.71,27.71,0,0,1,317.64,42Zm-11.21,0a16.37,16.37,0,0,0-1.31-6.52,17,17,0,0,0-8.95-9,16.34,16.34,0,0,0-6.54-1.33H284v33.6h5.59a16.5,16.5,0,0,0,6.54-1.31,16.73,16.73,0,0,0,5.35-3.59,16.91,16.91,0,0,0,3.6-5.36A16.5,16.5,0,0,0,306.43,42Z"/><path class="cls-2" d="M369.86,53.22a16.29,16.29,0,0,1-1.32,6.53,17.1,17.1,0,0,1-9,8.94A16.08,16.08,0,0,1,353.07,70h-28V14h28a16.24,16.24,0,0,1,6.52,1.33,17.17,17.17,0,0,1,9,9,16.2,16.2,0,0,1,1.32,6.52,12.42,12.42,0,0,1-.43,3.2,15.23,15.23,0,0,1-1.21,3.17,13.6,13.6,0,0,1-1.87,2.77A10.69,10.69,0,0,1,363.93,42a9,9,0,0,1,2.46,2,14.1,14.1,0,0,1,1.87,2.8A14.33,14.33,0,0,1,369.45,50,13.1,13.1,0,0,1,369.86,53.22ZM336.27,36.43h16.8a5.52,5.52,0,0,0,4-1.63A5.25,5.25,0,0,0,358.22,33a5.65,5.65,0,0,0,.43-2.21,5.52,5.52,0,0,0-.43-2.19A5.36,5.36,0,0,0,357,26.84a5.52,5.52,0,0,0-4-1.63h-16.8Zm0,22.38h16.8a5.44,5.44,0,0,0,2.18-.43A5.56,5.56,0,0,0,357,57.19a5.4,5.4,0,0,0,1.19-1.78,5.52,5.52,0,0,0,.43-2.19,5.54,5.54,0,0,0-5.58-5.58h-16.8Z"/><path class="cls-2" d="M482.4,70H468.81L458,51.93,447.21,70H433.69l17.19-28L433.69,14h13.52L458,32.09,468.81,14H482.4L465.21,42Z"/><path class="cls-2" d="M378.79,14V69.23h46.7V14Zm35.66,43.56H389.59V25.21h24.86Z"/></g></g></svg>